<svg width="82" height="62" viewBox="0 0 82 62" fill="none" xmlns="http://www.w3.org/2000/svg">
<g filter="url(#filter0_dd_484_2)">
<rect x="16" y="8" width="50" height="30" fill="#21C613"/>
<path d="M29.3297 26.4219H34.4937V28H27.3531V16.625H29.3297V26.4219ZM37.9953 28H36.0969V19.5469H37.9953V28ZM35.9797 17.3516C35.9797 17.0599 36.0708 16.8177 36.2531 16.625C36.4406 16.4323 36.7062 16.3359 37.05 16.3359C37.3937 16.3359 37.6594 16.4323 37.8469 16.625C38.0344 16.8177 38.1281 17.0599 38.1281 17.3516C38.1281 17.638 38.0344 17.8776 37.8469 18.0703C37.6594 18.2578 37.3937 18.3516 37.05 18.3516C36.7062 18.3516 36.4406 18.2578 36.2531 18.0703C36.0708 17.8776 35.9797 17.638 35.9797 17.3516ZM43.2 25.5938L44.9891 19.5469H46.95L44.0203 28H42.3719L39.4187 19.5469H41.3875L43.2 25.5938ZM51.9047 28.1562C50.7016 28.1562 49.725 27.7786 48.975 27.0234C48.2302 26.263 47.8578 25.2526 47.8578 23.9922V23.7578C47.8578 22.9141 48.0193 22.1615 48.3422 21.5C48.6703 20.8333 49.1286 20.3151 49.7172 19.9453C50.3057 19.5755 50.962 19.3906 51.6859 19.3906C52.837 19.3906 53.725 19.7578 54.35 20.4922C54.9802 21.2266 55.2953 22.2656 55.2953 23.6094V24.375H49.7719C49.8292 25.0729 50.0609 25.625 50.4672 26.0312C50.8786 26.4375 51.3943 26.6406 52.0141 26.6406C52.8839 26.6406 53.5922 26.2891 54.1391 25.5859L55.1625 26.5625C54.824 27.0677 54.3708 27.4609 53.8031 27.7422C53.2406 28.0182 52.6078 28.1562 51.9047 28.1562ZM51.6781 20.9141C51.1573 20.9141 50.7354 21.0964 50.4125 21.4609C50.0948 21.8255 49.8917 22.3333 49.8031 22.9844H53.4203V22.8438C53.3786 22.2083 53.2094 21.7292 52.9125 21.4062C52.6156 21.0781 52.2042 20.9141 51.6781 20.9141Z" fill="white"/>
</g>
<defs>
<filter id="filter0_dd_484_2" x="0" y="0" width="82" height="62" filterUnits="userSpaceOnUse" color-interpolation-filters="sRGB">
<feFlood flood-opacity="0" result="BackgroundImageFix"/>
<feColorMatrix in="SourceAlpha" type="matrix" values="0 0 0 0 0 0 0 0 0 0 0 0 0 0 0 0 0 0 127 0" result="hardAlpha"/>
<feOffset dy="8"/>
<feGaussianBlur stdDeviation="8"/>
<feColorMatrix type="matrix" values="0 0 0 0 0.14902 0 0 0 0 0.14902 0 0 0 0 0.14902 0 0 0 0.2 0"/>
<feBlend mode="multiply" in2="BackgroundImageFix" result="effect1_dropShadow_484_2"/>
<feColorMatrix in="SourceAlpha" type="matrix" values="0 0 0 0 0 0 0 0 0 0 0 0 0 0 0 0 0 0 127 0" result="hardAlpha"/>
<feOffset dy="4"/>
<feGaussianBlur stdDeviation="4"/>
<feColorMatrix type="matrix" values="0 0 0 0 0.14902 0 0 0 0 0.14902 0 0 0 0 0.14902 0 0 0 0.24 0"/>
<feBlend mode="multiply" in2="effect1_dropShadow_484_2" result="effect2_dropShadow_484_2"/>
<feBlend mode="normal" in="SourceGraphic" in2="effect2_dropShadow_484_2" result="shape"/>
</filter>
</defs>
</svg>
